<?xml version="1.0" encoding="UTF-8"?>
<svg viewBox="0 0 744.09448 524.40942" xmlns="http://www.w3.org/2000/svg">
 <defs>
  <filter id="a">
   <feGaussianBlur stdDeviation="81.08492"/>
  </filter>
 </defs>
 <path transform="matrix(.11047 -.023735 .022163 .10315 300.37 92.346)" d="m-2512.5 56.332h5602.9v3419.3h-5602.9z" fill="#c8c4b7" filter="url(#a)"/>
 <path transform="matrix(.11047 -.023735 .022163 .10315 308.47 74.821)" d="m-2512.5 56.332h5602.9v3419.3h-5602.9z" fill="#ffe680"/>
 <path transform="matrix(.43582 -.079648 .075103 .41094 131.93 -1.6912)" d="m527.82 393.14a123.43 123.43 0 1 1 -246.87 0 123.43 123.43 0 1 1 246.87 0z" fill="#ecca3e"/>
 <path transform="matrix(.43582 -.079648 .075103 .41094 140.95 -12.415)" d="m527.82 393.14a123.43 123.43 0 1 1 -246.87 0 123.43 123.43 0 1 1 246.87 0z" fill="#00bf00"/>
 <path transform="matrix(.34629 0 0 .34629 227.09 -36.051)" d="m509.34 405.88-152.09 27.812-31.844 143.88c17.672 2.6926 36.123 2.7338 54.844-0.6875 84.379-15.421 141.36-91.532 129.09-171z" fill="#00d600"/>
 <path transform="matrix(.34629 0 0 .34629 227.09 -36.051)" d="m358.56 281.16c-10.467-0.1047-21.125 0.79104-31.844 2.75-85.752 15.672-143.34 94.018-128.56 174.88 11.551 63.205 63.973 109.14 127.25 118.78l31.844-143.88 152.09-27.812c-0.1997-1.2933-0.26335-2.5801-0.5-3.875-12.93-70.75-77.016-120.11-150.28-120.84z" fill="#00e600"/>
 <path transform="matrix(.34629 0 0 .34629 227.09 -36.051)" d="m294.21 361.94-11.417 8.4406-21.06 15.749c-8.5971 18.275-7.3982 37.665-2.0165 58.264 13.962 53.441 53.709 79.564 109.79 73.192 28.709-3.2616 55.008-12.916 71.137-33.43l29.248-36.677-175.68-85.539z" fill="#090"/>
 <path transform="matrix(.34065 -.062255 .058702 .3212 200.08 -8.6127)" d="m527.82 393.14a123.43 123.43 0 1 1 -246.87 0 123.43 123.43 0 1 1 246.87 0z" fill="#00bf00"/>
 <path transform="matrix(.34065 -.062255 .058702 .3212 203.09 -11.37)" d="m527.82 393.14a123.43 123.43 0 1 1 -246.87 0 123.43 123.43 0 1 1 246.87 0z" fill="#00e600"/>
 <path transform="matrix(.80364 -.2579 .2579 .80364 39.744 117.79)" d="m547.72 161.72c-1.8987-0.04825-3.9466 1.5928-4.1562 4.5625-0.625 8.8511-2.7056 17.502-4.0625 26.25-1.131 12.074-3.4875 23.94-5.8438 35.812-2.4351 12.589-3.8654 25.322-5.9375 37.969-0.92596 12.481-3.4497 24.76-4.5312 37.219 0.0141 11.693-2.2523 23.221-2.625 34.875 0.60593 8.2588 1.187 16.478 1.0938 24.75-1.4608 5.9134-1.0368 12.24-0.5625 17.781-0.96181 6.3461 1.6579 11.876 2 17.781-0.60387 5.5867-0.67192 10.503-1.25 15.875 0.69238 3.1878 0.40342 6.1905 0 9.375-2.6882 21.219 29.672 23.633 30.156 2.25 0.07393-3.2612 0.21515-6.593 1.1562-9.7188 0.15872-6.3918 0.19614-13.193-1.5625-19.531 0.94645-5.4977 0.454-11.248-0.375-17 0.05999-5.708-0.19184-11.993-1.625-17.969-0.90613-8.4096-1.7506-16.833-3.0938-25.188-1.8996-10.65-3.4125-21.22-2.4688-32.094 0.27928-12.425 0.68931-24.857 1.6875-37.25-0.38665-12.507-1.0935-25.012 0.25-37.5 0.77049-12.206 2.7187-24.12 5.2188-36.094 0.70041-9.5118 1.2868-19.356-0.25-28.781-0.37261-2.2853-1.742-3.3375-3.2188-3.375zm102.72 6.875c-1.1694 0.08296-2.517 1.086-4.0312 2.9688-3.7921 4.715-5.8023 9.8467-7.5625 15.531-1.4702 6.5125-3.3604 12.904-5.2812 19.281-1.1051 10.076-2.1529 20.133-3.6875 30.156-1.3704 13.005-3.3456 25.893-6.1875 38.656-2.729 9.3266-4.2178 18.936-6.4375 28.375-1.7995 6.0957-1.4402 12.428-2.3438 18.688-1.7144 5.9612-2.1636 12.183-2.25 18.031 0.12629 5.4972-1.3119 10.125-1.1562 15.812-1.3517 6.4522-2.0044 13.581-1.5312 19.906-1.4095 1.7621 0.13285 3.5238 0.1875 5.2812 0.64814 20.835 29.366 20.564 29.469-0.28125 0.00219-0.44572 1.5285-4.8774 0.03125-5.625 0.1974-4.9534-0.72741-10.091-0.59375-15.25 1.8177-6.2564 1.8883-12.478 2.2188-18.75 0.51226-5.0261 0.85452-10.941 1.1562-16.531 0.33749-6.3471 2.0992-12.52 1.4375-18.875-0.57973-9.1303-0.58751-18.291-0.4375-27.438 1.5549-13.218 3.7572-26.313 5.75-39.469 1.0541-9.9255 3.137-19.606 5.2812-29.344 0.11144-6.6693 0.83264-13.234 1.5-19.875 0.06105-5.7457-0.05456-11.453-1.8438-17-0.95358-2.9565-2.184-4.3567-3.6875-4.25zm-538.03 3.5312c-1.4814 0.04742-2.9731 0.27232-4.4688 0.75-7.8066 0.99453-15.713 0.87015-23.562 1.6875-9.5817 1.4329-19.061 4.1752-28.812 2.5-8.0483-0.47919-15.785 0.50607-23.656 2.0938-4.9266-10.651-25.407-3.9106-21.812 10.594 2.6446 10.671 2.6708 21.732 3.1875 32.656-0.08431 14.477-0.47864 28.963-0.71875 43.438-0.12504 14.928-1.5893 29.778-2.25 44.688-0.47868 15.731-3.421 31.172-6.2812 46.594-1.3357 9.2382-4.2938 18.086-7.0312 26.969 9.0931 23.545 20.215 18.711 39.25 16.125 9.0375-2.2658 18.258-1.5336 27.438-1.75 7.3994-1.0346 14.612 0.15927 21.906 1.0625 4.2529 0.26633 8.2596 1.0836 12.562 2.1562 5.073 1.8382 10.044 3.7114 14.844 6.0312 23.035 11.133 38.851-25.212 14.531-33.156-6.2251-2.0334-12.566-3.5879-18.75-5.7188-7.2413-2.6004-14.197-6.6007-22.094-6-8.1079 0.44298-15.96 2.0833-24.031 2.9375-10.84 0.42961-21.72 1.0375-32.531 1.8125-1.0928 0.23976-2.0386 0.45469-2.9062 0.65625-0.12636-2.7815-0.16032-5.578 0-8.375 0.87184-15.87 1.2325-31.766 3.4375-47.531 0.79918-6.0566 1.4771-12.118 2-18.188 1.2006 0.44514 2.522 0.81079 3.9688 1.0625 7.8332 1.3629 15.771 1.172 23.688 1 5.5612-0.14437 11.099 0.99121 16.344 2.1562l2.3438 1.375c20.833 12.271 31.348-34.363 7.1875-33.438-1.1602 0.04446-2.3085 0.11179-3.4688 0.15625-8.3507-1.927-15.965 0.24303-24.281 1.8438-7.5767 0.8635-15.224 1.3249-22.625 3.25-0.69071 0.17965-1.3389 0.40241-1.9688 0.625 0.03883-1.9677 0.06267-3.9344 0.0625-5.9062 0.38042-14.831-0.15479-29.616-1.3438-44.406-0.07467-8.3446 0.35128-16.705 0.5-25.031 0.41108-0.05906 0.8477-0.13831 1.2812-0.25 6.4635-1.6651 13.06-0.73738 19.594-0.125 10.512 1.7397 21.132 1.3231 31.719 1.9062 7.2276 2.0936 14.247 4.0484 21.781 5.125 5.8479 1.6901 10.809 3.5107 17.219 3.0938 23.568-1.5329 24.676-33.827 1.0625-33.375-4.457 0.08537-8.8682-1.236-13.312-1.0938zm371.75 45c-0.48153-0.05147-1.1216 0.15086-2.0312 0.5625-12.143 5.4946-15.121 21.195-25.281 29.625-9.0397 7.5003 14.534 18.351 15.219 6.625 0.77204-13.225 13.695-21.285 13.25-34.281-0.05696-1.6632-0.35369-2.4455-1.1562-2.5312zm-284.5 49.344c-6.0206 0.4066-11.643 4.7908-10.062 12.625 2.0604 10.214 3.1476 20.596 4.4062 30.938-0.22678 11.722-0.6246 23.39-0.40625 35.125 0.3817 9.1197-0.49749 18.228-0.40625 27.344 0.0914 5.1775-0.99127 10.303-1.8438 15.219-4.2866 24.719 21.462 23.845 26.25 2.6562 0.43469-6.0348 0.62724-12.417 0.625-18.625-0.04396-0.63535-0.08261-1.2708-0.125-1.9062 1.6693-3.7998 3.3438-7.6024 4.9375-11.438 5.4878-11.251 8.6804-23.372 13.156-35 1.873-4.6963 4.6907-8.666 7.875-12.375 0.41681 2.5338 0.78473 5.3881 0.84375 8.5938-0.00937 12.77 0.12263 25.52 0.625 38.281 0.82784 9.8994-0.28612 19.714-1.7812 29.469-2.6017 12.892 9.2173 12.954 16.656 6.1562 4.4822 5.0903 13.795 4.2309 11.188-6.1562-1.1602-7.602-2.1794-15.238-2.7188-22.906 0.82325-2.612 1.7672-5.1881 2.7812-7.75 3.0077-6.3164 7.002-11.99 11.344-17.594 3.935-8.1608 9.1323-15.518 13.938-23.188 2.3818-3.713 5.0381-7.0982 7.4688-10.625 1.3932-1.2829 2.7984-2.5588 4.2188-3.8125-0.55786 6.9619-0.2858 13.909 0.09375 20.906 1.6582 11.145 2.0198 22.278 1.2188 33.5-0.20233 10.174-2.123 20.16-3.8125 30.156-1.9228 7.1598-3.3343 12.733-2.1562 19.656 3.2054 18.839 20.97 18.664 27 0.53125 1.9108-5.7457 0.77198-11.541 0.6875-18 0.28865-10.538-1.2439-21.044-0.25-31.594 0.02158-11.772-0.05362-23.545-0.34375-35.312-0.3763-9.0014-0.46108-17.983-2.125-26.875-3.8261-15.277-16.414-13.823-25.188-3.5938-0.28002 0.30015-0.53954 0.6039-0.8125 0.90625h-0.09375l-4.1562 0.3125c-6.0578 4.6025-9.8096 9.8039-12.562 17.219-4.9274 8.174-10.969 15.526-15.5 23.812-0.80713 3.3035-1.8359 6.466-2.9688 9.5625-0.51643-7.8357-1.098-15.668-1.75-23.5-0.5257-22.796 8.5924-41.014-21.938-45.719-7.3066 2.7004-12.876 7.4735-16.688 14.281-4.4142 9.0751-7.3514 18.618-10.656 28.156-0.93137 2.4386-1.846 4.8909-2.7188 7.3438-0.50266-4.6352-0.86931-9.2713-0.96875-13.938 0.39134-10.664-0.70843-21.076-0.78125-31.688-0.05484-7.9919-6.4794-11.563-12.5-11.156zm187.97 12.031c-8.7286 0.7344-17.109 1.2133-24.188 6.3125-10.392 5.2573-13.222 15.873-14.594 26.594 0.81289 13.056 0.41381 26.088-0.03125 39.156 0.29233 12.913 0.44845 25.625-1.25 38.438-0.79971 6.7531-0.17844 13.522 0.03125 20.281 2.9676 22.494 24.273 22.489 31.875 3 3.1858-8.5888 7.0154-16.942 11.188-25.094 4.0405-10.677 6.7519-21.195 12.125-31.344-0.14393 1.6619-0.28458 3.3114-0.4375 4.9688-1.4319 7.1724-1.2336 14.453-1.2812 21.719 0.26669 7.4756 0.07249 14.913-0.34375 22.375 2.1188 4.0483 1.2322 8.3571 1.6875 12.438 1.7575 15.749 24.234 13.476 22.281-2.25-0.50967-4.1049-2.3011-8.0972-1.5938-12.312-1.7092-6.4409-2.4291-12.701-1.3438-19.375 0.51082-6.8787 0.90823-13.754 0.875-20.656 0.67312-7.7612 1.6508-15.519 1.6875-23.312-0.16259-10.96 2.4292-20.164-2.8125-26.156-0.17421-0.84976-0.35918-1.6827-0.59375-2.5312-0.63505 0.13189-1.2379 0.2525-1.8125 0.40625-1.8099-1.2606-4.1551-2.3235-7.2188-3.1562 8.5754-1.2498 14.452-10.831 5.9062-18.375-8.3316-7.3545-19.327-10.135-30.156-11.125zm81.562 9.2812c-3.626-0.01918-7.2735 2.9664-7.6562 8.5938-0.48612 7.1477-0.70631 14.313-1.0938 21.469 0.65881 9.9853-1.9061 19.672-2.0938 29.594 0.85724 11.099-1.9398 21.564-4.9375 32.094-2.0777 6.4075-3.6064 12.556-4.0312 19.031-1.6337 2.3154 0.28667 4.4925 0.4375 6.75 1.2988 19.441 25.219 19.061 27.562-0.28125 0.17953-1.4816 1.7986-2.8612 0.53125-4.4375 0.71644-5.6942 0.76328-12.383 0.3125-18.625-0.66981-11.194-2.8177-22.286-0.25-33.469 0.89211-10.169-0.28541-20.415 0.375-30.625-0.3801-7.6242-0.43049-15.319-1.8438-22.844-0.91866-4.8912-4.1131-7.2331-7.3125-7.25zm-320.5 4.9062c-1.8896 0.03554-3.9123 0.31567-6.25 0.8125-15.265 3.2442-6.3251 27.93 7.5312 20.75 6.6379-3.4394 9.4498-6.788 13.062-13.312 1.9266-3.4795 1.8643-3.7959-1.8125-5.3125-4.8494-2.0002-8.374-3.0157-12.531-2.9375zm242.94 8.6875c3.3407-0.06349 6.1526 0.79589 9.2812 3.3438 2.7792 2.2633 5.7742 3.2989 8.5938 3.4062-3.4632 3.0854-7.2053 7.1586-8.9375 12.969-2.4323 9.6373-5.7516 18.611-10.531 27.375-4.4878 11.139-10.929 19.91-17.812 29.594-1.0356 2.1542-2.0411 4.3089-3.0625 6.4688-1.646-10.936-2.1919-22.042-2.0625-33.094 0.77205-12.106 1.9003-24.238 4.7188-36.062 1.0728-3.3946 2.1862-6.4724 4.1875-9.4375 3.2652-1.2726 8.063-3.206 12.062-4.2188 1.2581-0.20431 2.4489-0.32259 3.5625-0.34375zm227.56 118.09c-5.9618 0-11.923 5.0642-14.938 15.188-0.90028 3.0237-0.23403 5.7735-0.1875 8.7812 0.33136 21.421 29.95 21.421 30.281 0 0.04653-3.0077 0.68154-5.7576-0.21875-8.7812-3.0141-10.123-8.9757-15.188-14.938-15.188z" fill="#2b1100"/>
</svg>
