<?xml version="1.0" encoding="UTF-8"?>
<svg viewBox="0 0 1085 922" xmlns="http://www.w3.org/2000/svg">
 <g fill-rule="evenodd" stroke-width=".5">
  <g fill="#fff" stroke="#fff">
   <path d="m0 461v-461h1085v782l-0.5-0.2q-0.5-0.3-13.5-3.3t-33.5-5.5-59-11.2l-38.5-8.8v-0.2q0-0.3-4.5-2.3t-12.5-8-16.5-16.5-12-21.2q-3.5-10.8-4.5-11-1-0.3-1.8-4l-0.7-3.8v-2l0.3-0.2 0.2-0.3 0.2-0.3 0.3-0.2 0.3-0.2 0.2-0.3 10-2q10-2 12-2.3l2-0.2-0.2-5-0.3-5-0.5-2.5-0.5-2.5-0.5-1-0.5-1-0.3-0.2-0.2-0.3-0.2-0.3q-0.3-0.2-0.6-0.2h-0.2l-5 0.2q-5 0.3-16.5 1.3t-12.7-1.7q-1.3-2.8-1.8-10.8t-6.2-13.8q-5.8-5.7-15.8-6.2t-55.5 4.5-51 10-14.5 9-15.2 7.7q-6.3 3.8-16 10.3l-9.8 6.5-0.2 1-0.3 1v6l0.3 0.2 0.2 0.3 0.2 0.3 0.3 0.2 0.3 0.2 0.2 0.3 0.2 0.3 0.3 0.2 0.3 1 0.2 1-1.5 0.2q-1.5 0.3-11.5 1.6-10 1.2-10 2.2t-6 3.5-6 3.5 2 1.2q2 0.3 0 0.8t-2.8 1.8q-0.7 1.2 0 2l0.8 0.7-1 0.5q-1 0.5-5 0.8l-4 0.2v2l2.5 0.2 2.5 0.3 13.5 2q13.5 2 23.7 1.3 10.3-0.8 10 0.7-0.2 1.5 2.8 1.7 3 0.3 4 0l1-0.2-0.8 4.5q-0.7 4.5-1.2 5.5t-1 2l-0.5 1-0.3 0.2-0.2 0.3 0.2 0.3q0.3 0.2 0.6 0.4l0.2 0.3 3.5 0.3 3.5 0.2v3h2.5q2.5 0 5-2.8 2.5-2.7 3.5-3l1-0.2 3 0.2 3 0.3 0.2 0.3 0.3 0.2 0.5 1 0.5 1 0.3 0.2 0.2 0.3 0.2 0.3 0.3 0.2 1 6q1 6 1.3 10l0.2 4h2l0.2-1 0.3-1 0.5-1q0.5-1 0.8-2.5l0.2-1.5 1-0.2 1-0.3h2l1.5 0.3 1.5 0.2-0.8 5q-0.7 5-1.2 6t-1 2l-0.5 1-0.3 0.2-0.2 0.3-0.2 0.3-0.3 0.2-0.3 0.2-0.2 0.3 0.2 0.3 0.3 0.2 0.3 0.2 0.2 0.3h3l0.2-0.3 0.3-0.2 0.3-0.2 0.2-0.3 0.2-0.3 0.3-0.2 0.3-0.2 0.2-0.3 0.2-0.3 0.3-0.2 0.3-0.2 0.2-0.3 2-0.5q2-0.5 4.2-2.8 2.3-2.2 4.3-9.7l2-7.5 0.3-0.2 0.2-0.3 5.5 1q5.5 1 11 4t6.5 3.3l1 0.2v0.5l1 0.5 1 0.5 0.2 0.3 0.3 0.2 10.7 11.2q10.8 11.3 16.8 15.6 6 4.2 6.8 5.7 0.7 1.5 1.2 3l0.5 1.5 0.3 0.5 0.2 0.5v0.2q0 0.3 0.5 0.6l0.5 0.2 0.2 0.5q0.3 0.5 0.8 1.5l0.5 1 0.3 0.2 0.2 0.3 5 6.5q5 6.5 13 10.5t34 10 50.5 15.5 77.5 35 62.5 30.5 11 5.5l1.5 0.5 1 0.5 1 0.5 1.5 0.3 1.5 0.2v16h-1085v-461zm150-250v1l0.5 21.8q0.5 21.7 3 19.7t6.5-1-1.5 7.3q-5.5 6.2 20 7 25.5 0.7 26.5 1 1 0.2 0.2 31.7-0.7 31.5-26.4 32.3-25.8 0.7-27.3 1l-1.5 0.2 0.5 20.8q0.5 20.7 4 20.7t4.3 0.7q0.7 0.8-3.8 7.8t-4.8 23.5l-0.2 16.5 66.8-0.5q66.7-0.5 63-2.5-3.8-2-3.3-3.8 0.5-1.7 5-0.7t8.5 2.7q4 1.8 4.5-11 0.5-12.7 60-12.7t61 0.3q1.5 0.2 2 14.4 0.5 14.3 8.5 9.3t11.5-4.3q3.5 0.8 1.5 3-2 2.3-5 4.3t35 2.7q38 0.8 38-10.2v-11l0.2-3.5 0.3-3.5 0.3-0.2 0.2-0.3 0.2-0.3 0.3-0.2 0.3-0.2 0.2-0.3 0.2-0.3 0.3-0.2 0.3-0.2 0.2-0.3 26.5-0.5 26.5-0.5-0.2-0.3-0.3-0.2-0.3-0.2-0.2-0.3-0.2-0.3-0.3-0.2-0.3-0.2-0.2-0.3-0.2-0.3-0.3-0.2-0.3-0.2-0.2-0.3-0.2-0.3q-0.3-0.2-1.6-2.2-1.2-2-2.2-2.2l-1-0.3-1-0.3-1-0.2 0.2-1 0.3-1 0.3-0.2 0.2-0.3 0.2-0.3 0.3-0.2 0.3-0.2 0.2-0.3 3 0.5q3 0.5 4.5 0.8l1.5 0.2-0.2-24.5-0.3-24.5-0.3-0.2-0.2-0.3-26-0.5q-26-0.5-27.5-1t-1.5-32 24-32.2l24-0.8-0.2-1-0.3-1-0.3-0.2-0.2-0.3-0.2-0.3-0.3-0.2-0.3-0.2q-0.2-0.3-2.2-2.3l-2-2-0.2-0.3-0.3-0.2v-2l0.3-0.2 0.2-0.3 0.2-0.3 0.3-0.2 0.3-0.2 0.2-0.3 4.5 0.7q4.5 0.8 4.5 1.8v1h2v-46l-25-0.8q-25-0.7-26.2-1.4-1.3-0.8-0.8-31.8t0.8-32q0.2-1 59.2-0.2 59 0.7 60.5 1 1.5 0.2 0.7 32.2-0.7 32-1 32.2-0.2 0.3-29.7 0.6l-29.5 0.2 0.5 21.2q0.5 21.3 1.5 20.3t4.2-0.3q3.3 0.8 2 3-1.2 2.3-4.2 6-3 3.8 25 4.6 28 0.7 29 1 1 0.2 1.2 12.2l0.3 12 2.3-0.2q2.2-0.3 6.7-1.8t6.5-0.8q2 0.8 0 3-2 2.3-3 2.8t28 1.2q29 0.8 29.2-13.7 0.3-14.5 0.6-15.5l0.2-1 59.5 0.8q59.5 0.7 61 1 1.5 0.2 2 12.4 0.5 12.3 4 10.3t8-1 1.3 3.7q-3.3 2.8-3 3 0.2 0.3 24.7 0.6l24.5 0.2 0.8-14.5q0.7-14.5 1-15.5 0.2-1 59.7-0.2 59.5 0.7 61 1 1.5 0.2 0.7 31.7-0.7 31.5-2.4 32.3-1.8 0.7-23.8 1.2l-22 0.5 0.2 0.3 0.3 0.2 0.3 0.2 0.2 0.3 0.2 0.3 0.3 0.2 2 2.5q2 2.5 2.5 3.5l0.5 1v3l-0.3 0.2-0.2 0.3-0.2 0.3-0.3 0.2-0.3 0.2-0.2 0.3h-2l-1.5-0.5q-1.5-0.5-3-2l-1.5-1.5-0.2-0.3-0.3-0.2-0.3-0.2-0.2-0.3-0.2-0.3-0.3-0.2-0.3 87.5-0.2 87.5 23.5 0.2q23.5 0.3 26.5 1.3t3.2 31.7q0.3 30.8-0.4 31.6-0.8 0.7-59.3 1.2t-60.5-0.5-2.8-12.7l-0.7-11.8-0.3 0.2-0.2 0.3-1 0.5-1 0.5-0.2 0.3-0.3 0.2-0.3 0.2-0.2 0.3-0.2 0.3q-0.3 0.2-3 3l-2.8 2.7-0.2 0.3-0.3 0.2-0.3 0.2-0.2 0.3h-4l-1.5-0.3-1.5-0.2 0.2-1.5 0.3-1.5 0.3-0.2 0.2-0.3 0.2-0.3 0.3-0.2 2.3-2.2q2.2-2.3 2.4-2.6l0.3-0.2 0.3-0.2 0.2-0.3 0.2-0.3 0.3-0.2 0.3-1 0.2-1-119.5-0.2q-119.5-0.3-119.7-0.6l-0.3-0.2-0.5 5.5q-0.5 5.5-1.2 14.3-0.8 8.7-30.8 9.7l-30 1-0.2 0.3-0.3 0.2v111l0.3 0.2 0.2 0.3h1l1-1q1-1 3.5-1h2.5l1 0.5 1 0.5 0.2 0.3 0.3 0.2v2l-0.3 0.2-0.2 0.3-1 0.5-1 0.5-3 3q-3 3-3.2 3.3l-0.3 0.2-0.3 0.2-0.2 0.3-0.2 0.3-0.3 0.2-0.3 2-0.2 2 28 0.2q28 0.3 30.5 1 2.5 0.8 2 32-0.5 31.3-60.5 31.3t-60-31.5 24.5-32.5l24.5-1-0.2-0.3-0.3-0.2-0.3-0.2-0.2-0.3-1-0.5-1-0.5-1-0.5q-1-0.5-3.2-6.2l-2.3-5.8-0.5-1-0.5-1-0.3-0.2-0.2-0.3 0.2-0.3 0.3-0.2 0.3-0.2 0.2-0.3 0.2-0.3 0.3-0.2 0.3-0.2 0.2-0.3h3l2.5 0.7q2.5 0.8 2.7 2.3l0.3 1.5 0.5 1 0.5 1v-56q0-56-0.3-57l-0.2-1-23-0.2q-23-0.3-25-1.3t-2.5-11.7l-0.5-10.8-1.5-0.2-1.5-0.3h-3l-0.2 0.3-0.3 0.2-3.5 3.5q-3.5 3.5-3.8 3.7l-0.2 0.3-0.2 0.3-0.3 0.2-0.3 0.2-0.2 0.3h-4l-1.5-0.3-1.5-0.2 0.2-1.5 0.3-1.5 0.3-0.2 0.2-0.3 0.2-0.3 0.3-0.2 0.3-0.2q0.2-0.3 2.7-2.8l2.5-2.5 0.2-0.3 0.3-0.2 0.3-0.2 0.2-0.3 0.2-0.3 0.3-0.2 0.3-1 0.2-1-72-0.2q-72-0.3-74-1.3t-2-44.3v-48.2l-24.5-0.2q-24.5-0.3-27-1-2.5-0.8-2.7-15.3l-0.3-14.5-0.3 0.2-0.2 0.3-0.2 0.3-0.3 0.2-0.3 0.2-0.2 0.3-0.2 0.3-0.3 0.2-0.3 0.2-0.2 0.3-0.2 0.3-0.3 0.2-0.3 0.2-0.2 0.3-0.2 0.3-0.3 0.2-0.3 0.2-0.2 0.3-3.2 3.3q-3.3 3.2-3.6 3.4l-0.2 0.3-0.2 0.3-0.3 0.2-0.3 0.2-0.2 0.3-0.2 0.3-0.3 0.2-0.3 0.2-0.2 0.3-0.2 0.3-0.3 0.2-0.3 0.2-0.2 0.3h-1l-1-0.5-1-0.5-1.5-0.3-1.5-0.2 0.2-1 0.3-1 0.5-1 0.5-1 0.3-0.2 0.2-0.3 0.2-0.3q0.3-0.2 2.6-3l2.2-2.7 0.2-0.3 0.3-0.2 0.3-0.2 0.2-0.3 0.2-0.3 0.3-0.2 0.3-0.2 0.2-0.3 0.2-0.3 0.3-0.2 0.3-0.2 0.2-0.3-66.5-0.3-66.5-0.2 0.5 23.8q0.5 23.7 1.5 24 1 0.2 2.8 7.2 1.7 7 3 9.2 1.2 2.3 1.4 2.6l0.3 0.2 0.5 1 0.5 1v2l-0.3 0.2-0.2 0.3-0.2 0.3-0.3 0.2-0.3 0.2-0.2 0.3h-2l-1.5-0.5q-1.5-0.5-2.7-1.2l-1.3-0.8-0.3-0.2-0.2-0.3-0.2-0.3-0.3-0.2-0.5 58.5-0.5 58.5-0.3 0.2-0.2 0.3 26 0.5q26 0.5 28.5 1.2 2.5 0.8 1.7 32.8-0.7 32-58.4 32.2-57.8 0.3-60.3-0.7t-2.5-32.5 28.5-32.2l28.5-0.8-0.2-59.5-0.3-59.5-0.3 0.2-0.2 0.3-0.2 0.3-0.3 0.2-2 3q-2 3-2.3 3.2l-0.2 0.3h-2l-1-0.5-1-0.5-1-0.3-1-0.2 0.2-1.5 0.3-1.5 0.5-1 0.5-1 0.5-1 0.5-1 0.5-1.5q0.5-1.5 4-8t4-50-1.5-45-4.5-5.5l-2.5-4-0.5-1-0.5-1-0.5-1-0.5-1-0.3-0.2-0.2-0.3 0.2-0.3 0.3-0.2 0.3-0.2 0.2-0.3 0.2-0.3 0.3-0.2 0.3-1 0.2-1 1 0.2 1 0.3 3 0.7q3 0.8 3.2 2.3l0.3 1.5 0.3 0.2 0.2 0.3 0.2 0.3 0.3 0.2 0.3-23 0.2-23-4.5-0.2q-4.5-0.3-28.5-1.3t-24-32.5 26-32.5l26-1-0.2-0.3-0.3-0.2-0.3-0.2-0.2-0.3-0.2-0.3-0.3-0.2-0.3-0.2-0.2-0.3-0.2-0.3q-0.3-0.2-2.3-3.7l-2-3.5-0.3-0.2-0.2-0.3 0.2-0.3 0.3-0.2 0.3-0.2 0.2-0.3 0.2-0.3 0.3-0.2 0.5-1 0.5-1 0.3 0.2 0.2 0.3 3.2 1.3q3.3 1.2 3.8 2.2l0.5 1 0.3 0.2 0.2 0.3 0.2 0.3 0.3 0.2 0.3-7.5 0.2-7.5 0.2-16 0.3-16 0.3-0.2 0.2-0.3-28-1q-28-1-29.2-1.7-1.3-0.8-0.8-32.3t59.8-31.3q59.2 0.3 60.7 0.6 1.5 0.2 1.3 31.7-0.3 31.5-1 32.3-0.8 0.7-27.8 1-27 0.2-27 1.2zm503.2 490.2q0.3-0.2 0.6 0 0.2 0.3-0.3 0.3t-0.3-0.3zm78 53q0.3-0.2 0.6 0 0.2 0.3-0.3 0.3t-0.3-0.3z"/>
   <path d="m640.2 302.8l-0.2-0.3 30-0.3 30-0.2 0.5 14.2q0.5 14.3 7.5 15.3t58.5 1 53.7-1.3q2.3-1.2 2.6-15.2l0.2-14 1.5 0.2 1.5 0.3 0.2 0.3 0.3 0.2 0.3 0.2 0.2 0.3 0.2 0.3 0.3 0.2 1.7 3.2q1.8 3.3 2.8 3.8l1 0.5 1.5 0.5 1.5 0.5h2l0.2-0.3 0.3-0.2 0.3-0.2 0.2-0.3 0.2-0.3 0.3-0.2v-1q0-1-1.3-4.5l-1.2-3.5h46v14q0 14 3.5 15.2 3.5 1.3 29.5 1.8l26 0.5-0.2 0.3-0.3 0.2-0.3 0.2-0.2 0.3-1 0.5q-1 0.5-2.8 2.2l-1.7 1.8-0.3 0.2-0.2 0.3-0.2 0.3-0.3 0.2v2l0.3 0.2 0.2 0.3h3.5q3.5 0 4.5-0.3l1-0.2v174l-29 0.2q-29 0.3-29.8 1-0.7 0.8-1.4 13.8l-0.8 13-1-0.2-1-0.3-1-0.5q-1-0.5-4.5-1.5l-3.5-1h-4l-0.2 0.3-0.3 0.2-0.3 0.2-0.2 0.3-0.2 0.3-0.3 0.2-0.3 0.2-0.2 0.3 1 0.5 1 0.5 2.5 1q2.5 1 3.5 1.3l1 0.2 0.2 1 0.3 1 0.3 0.2 0.2 0.3-121.5 0.3-121.5 0.2-0.2-1.5q-0.3-1.5-0.6-15.5-0.2-14-1.7-14.2-1.5-0.3-60-0.8t-59.3 0.2q-0.7 0.8-1.4 16.8l-0.8 16-1.5-0.2-1.5-0.3-1-0.5-1-0.5-0.2-0.3-0.3-0.2-0.3-0.2q-0.2-0.3-4.2-3.3l-4-3-2-0.5-2-0.5-1-0.5-1-0.5-0.2-0.3-0.3-0.2-0.3 0.2-0.2 0.3-0.2 0.3-0.3 0.2-0.3 0.2-0.2 0.3-0.2 0.3-0.3 0.2v2l0.3 0.2 0.2 0.3 1.8 1.3q1.7 1.2 2 1.4l0.2 0.3 0.2 0.3 0.3 0.2 0.3 0.2 0.2 0.3 0.2 0.3 0.3 0.2 0.3 0.2 0.2 0.3-68 0.3-68 0.2v-89l29.5-0.8q29.5-0.7 29.7-1 0.3-0.2 0.6-12.7l0.2-12.5 1 0.2 1 0.3 0.2 0.3 0.3 0.2 0.3 0.2 0.2 0.3 1 0.5 1 0.5 4.5 3q4.5 3 5.5 3.5l1 0.5 1.5 0.5 1.5 0.5h3l0.2-0.3 0.3-0.2 0.3-0.2 0.2-0.3 0.2-0.3 0.3-0.2 0.3-0.2 0.2-0.3-0.2-0.3-0.3-0.2-0.3-0.2-0.2-0.3-1-0.5-1-0.5-0.2-0.3-0.3-0.2-0.3-0.2-0.2-0.3-0.2-0.3-0.3-0.2-0.3-0.2-0.2-0.3-1-0.5q-1-0.5-2.5-1.5l-1.5-1-1-0.5-1-0.5-0.2-0.3-0.3-0.2-0.3-0.2-0.2-0.3-0.2-0.3-0.3-0.2-0.3-0.2-0.2-0.3-0.2-0.3-0.3-0.2-0.3-0.2-0.2-0.3 40.5-0.3 40.5-0.2 0.5 13.8q0.5 13.7 2.5 14.7t60.5 0.5 58.7-0.8q0.3-0.2 0.6-27.2l0.2-27v-9l-1.5-0.2q-1.5-0.3-27.5-1.3l-26-1 0.2-0.3 0.3-0.2 0.3-0.2 0.2-0.3 0.2-0.3 0.3-0.2 0.3-0.2 0.2-0.3 1-0.5 1-0.5 2.2-2.3q2.3-2.2 2.6-2.4l0.2-0.3 0.2-0.3 0.3-0.2 0.5-1 0.5-1 0.3-0.2 0.2-0.3 0.2-0.3 0.3-0.2 0.3-0.2 0.2-0.3-1.5-0.5-1.5-0.5h-3q-3 0-4.5 1.5l-1.5 1.5-0.2 0.3-0.3 0.2-0.3 0.2-0.2 0.3-0.2 0.3-0.3 0.2v-51l0.3-0.2 0.2-0.3 27.5-1q27.5-1 27.7-1.3 0.3-0.2 0.8-12.2l0.5-12 0.5-1 0.5-1 0.5 1 0.5 1 0.3 0.2 0.2 0.3 0.2 0.3 0.3 0.2 2.3 2.2q2.2 2.3 3.7 2.8l1.5 0.5h3l0.2-0.3 0.3-0.2 0.3-0.2 0.2-0.3 0.2-0.3 0.3-0.2v-1l-0.3-0.2-0.2-0.3-0.2-0.3q-0.3-0.2-1.8-2.7l-1.5-2.5-0.3-0.2-0.2-0.3-0.2-0.3-0.3-0.2-0.3-0.2z"/>
  </g>
  <path d="m146 212h4l0.5 21.8q0.5 21.7 3 19.7t6.5-1-1.5 7.3q-5.5 6.2 20 7 25.5 0.7 26.5 1 1 0.2 0.2 31.7-0.7 31.5-26.4 32.3-25.8 0.7-27.3 1l-1.5 0.2 0.5 20.8q0.5 20.7 4 20.7t4.3 0.7q0.7 0.8-3.8 7.8t-4.8 23.5l-0.2 16.5 66.8-0.5q66.7-0.5 63-2.5-3.8-2-3.3-3.8 0.5-1.7 5-0.7t8.5 2.7q4 1.8 4.5-11 0.5-12.7 60-12.7t61 0.3q1.5 0.2 2 14.4 0.5 14.3 8.5 9.3t11.5-4.3q3.5 0.8 1.5 3-2 2.3-5 4.3t35 2.7q38 0.8 38-10.2v-11h0.5l0.5-1.5 0.5-1.5 0.3 0.2 0.2 0.3 0.2 0.3 0.3 0.2 0.5-1 0.5-1 0.5 5 0.5 5 0.5-3 0.5-3 0.5-1 0.5-1 0.5 1q0.5 1 1 3l0.5 2h0.5l0.2 23.5q0.3 23.5 0.6 23.7l0.2 0.3h51.5q51.5 0 51.7-0.3l0.3-0.2 0.3-21 0.2-21h0.5l0.5-3.5 0.5-3.5 0.3-0.2 0.2-0.3 0.2-0.3 0.3-0.2 0.5-1.5 0.5-1.5 0.5 1 0.5 1v1l-0.3 0.2-0.2 0.3 0.2 0.3 0.3 0.2v1q0 1 0 3.5v2.5l0.5-2 0.5-2 0.5-4.5 0.5-4.5 0.3 1q0.2 1 1.2 1h1v1l-0.5 0.8q-0.5 0.7 0 1l0.5 0.2-0.2 27q-0.3 27-0.6 27.2-0.2 0.3-58.7 0.8t-60.5-0.5-2.5-14.7l-0.5-13.8-40.5 0.2-40.5 0.3 0.2 0.3 0.3 0.2 0.3 0.2 0.2 0.3 0.2 0.3 0.3 0.2 0.3 0.2 0.2 0.3 0.2 0.3 0.3 0.2 0.3 0.2 0.2 0.3 1 0.5 1 0.5 1.5 1q1.5 1 2.5 1.5l1 0.5 0.2 0.3 0.3 0.2 0.3 0.2 0.2 0.3 0.2 0.3 0.3 0.2 0.3 0.2 0.2 0.3 1 0.5 1 0.5 0.2 0.3 0.3 0.2 0.3 0.2 0.2 0.3-0.2 0.3-0.3 0.2-0.3 0.2-0.2 0.3-0.2 0.3-0.3 0.2-0.3 0.2-0.2 0.3h-3l-1.5-0.5-1.5-0.5-1-0.5q-1-0.5-5.5-3.5l-4.5-3-1-0.5-1-0.5-0.2-0.3-0.3-0.2-0.3-0.2-0.2-0.3-1-0.3-1-0.2-0.2 12.5q-0.3 12.5-0.6 12.7-0.2 0.3-29.7 1l-29.5 0.8v8h-0.5l-0.5-3-0.5-3-0.3-1.5-0.2-1.5h-2l-0.2 2.5-0.3 2.5-0.3-2.5-0.2-2.5h-2l-0.2 2q-0.3 2-0.8 3l-0.5 1h-0.5v-5l-24.5-0.2q-24.5-0.3-27-1-2.5-0.8-2.7-15.3l-0.3-14.5-0.3 0.2-0.2 0.3-0.2 0.3-0.3 0.2-0.3 0.2-0.2 0.3-0.2 0.3-0.3 0.2-0.3 0.2-0.2 0.3-0.2 0.3-0.3 0.2-0.3 0.2-0.2 0.3-0.2 0.3-0.3 0.2-0.3 0.2-0.2 0.3-3.2 3.3q-3.3 3.2-3.6 3.4l-0.2 0.3-0.2 0.3-0.3 0.2-0.3 0.2-0.2 0.3-0.2 0.3-0.3 0.2-0.3 0.2-0.2 0.3-0.2 0.3-0.3 0.2-0.3 0.2-0.2 0.3h-1l-1-0.5-1-0.5-1.5-0.3-1.5-0.2 0.2-1 0.3-1 0.5-1 0.5-1 0.3-0.2 0.2-0.3 0.2-0.3q0.3-0.2 2.6-3l2.2-2.7 0.2-0.3 0.3-0.2 0.3-0.2 0.2-0.3 0.2-0.3 0.3-0.2 0.3-0.2 0.2-0.3 0.2-0.3 0.3-0.2 0.3-0.2 0.2-0.3-66.5-0.3-66.5-0.2 0.5 23.8q0.5 23.7 1.5 24 1 0.2 2.8 7.2 1.7 7 3 9.2 1.2 2.3 1.4 2.6l0.3 0.2 0.5 1 0.5 1v2l-0.3 0.2-0.2 0.3-0.2 0.3-0.3 0.2-0.3 0.2-0.2 0.3h-2l-1.5-0.5q-1.5-0.5-2.7-1.2l-1.3-0.8-0.3-0.2-0.2-0.3-0.2-0.3-0.3-0.2-0.5 58.5-0.5 58.5-0.3 0.2-0.2 0.3 26 0.5q26 0.5 28.5 1.2 2.5 0.8 1.7 32.8-0.7 32-58.4 32.2-57.8 0.3-60.3-0.7t-2.5-32.5 28.5-32.2l28.5-0.8-0.2-59.5-0.3-59.5-0.3 0.2-0.2 0.3-0.2 0.3-0.3 0.2-2 3q-2 3-2.3 3.2l-0.2 0.3h-2l-1-0.5-1-0.5-1-0.3-1-0.2 0.2-1.5 0.3-1.5 0.5-1 0.5-1 0.5-1 0.5-1 0.5-1.5q0.5-1.5 4-8t4-50-1.5-45-4.5-5.5l-2.5-4-0.5-1-0.5-1-0.5-1-0.5-1-0.3-0.2-0.2-0.3 0.2-0.3 0.3-0.2 0.3-0.2 0.2-0.3 0.2-0.3 0.3-0.2 0.3-1 0.2-1 1 0.2 1 0.3 3 0.7q3 0.8 3.2 2.3l0.3 1.5 0.3 0.2 0.2 0.3 0.2 0.3 0.3 0.2 0.3-23 0.2-23-4.5-0.2q-4.5-0.3-28.5-1.3t-24-32.5 26-32.5l26-1-0.2-0.3-0.3-0.2-0.3-0.2-0.2-0.3-0.2-0.3-0.3-0.2-0.3-0.2-0.2-0.3-0.2-0.3q-0.3-0.2-2.3-3.7l-2-3.5-0.3-0.2-0.2-0.3 0.2-0.3 0.3-0.2 0.3-0.2 0.2-0.3 0.2-0.3 0.3-0.2 0.5-1 0.5-1 0.3 0.2 0.2 0.3 3.2 1.3q3.3 1.2 3.8 2.2l0.5 1 0.3 0.2 0.2 0.3 0.2 0.3 0.3 0.2 0.3-7.5 0.2-7.5h0.5l0.3-15.5q0.2-15.5 4.2-15.5zm-53.2 59.8l0.2-0.3 52-0.3 52-0.2v56h-105l0.2-27.5q0.3-27.5 0.6-27.7zm210.4 154.7l-0.2-27.5h105l-0.2 27.5q-0.3 27.5-52.3 27.5h-52l-0.3-27.5zm-211.2 222v-27.5h105v55h-105v-27.5z" fill="#010101" stroke="#010101"/>
  <g fill="#fefefe" stroke="#fefefe">
   <path d="m518 178.5v-27.5h105v55h-105v-27.5z"/>
   <path d="m893 299v-28l52 0.2 52 0.3 0.2 0.3q0.3 0.2 0.3 27.2t-52.3 27.5l-52.2 0.5v-28z"/>
   <path d="m516.8 271.8l0.2-0.3 52-0.3 52-0.2v56h-105l0.2-27.5q0.3-27.5 0.6-27.7z"/>
   <path d="m709 299v-28l52.2 0.5q52.3 0.5 52.6 28l0.2 27.5h-105v-28z"/>
   <path d="m92 176.5v-27.5h105v55h-105v-27.5z"/>
  </g>
  <path d="m600.5 211.8l-29.5 0.2 0.5 21.2q0.5 21.3 1.5 20.3t4.2-0.3q3.3 0.8 2 3-1.2 2.3-4.2 6-3 3.8 25 4.6 28 0.7 29 1 1 0.2 1.2 12.2l0.3 12 2.3-0.2q2.2-0.3 6.7-1.8t6.5-0.8q2 0.8 0 3-2 2.3-3 2.8t28 1.2q29 0.8 29.2-13.7 0.3-14.5 0.6-15.5l0.2-1 59.5 0.8q59.5 0.7 61 1 1.5 0.2 2 12.4 0.5 12.3 4 10.3t8-1 1.3 3.7q-3.3 2.8-3 3 0.2 0.3 24.7 0.6l24.5 0.2 0.8-14.5q0.7-14.5 1-15.5 0.2-1 59.7-0.2 59.5 0.7 61 1 1.5 0.2 0.7 31.7-0.7 31.5-2.4 32.3-1.8 0.7-23.8 1.2l-22 0.5 0.2 0.3 0.3 0.2 0.3 0.2 0.2 0.3 0.2 0.3 0.3 0.2 2 2.5q2 2.5 2.5 3.5l0.5 1v3l-0.3 0.2-0.2 0.3-0.2 0.3-0.3 0.2-0.3 0.2-0.2 0.3h-2l-1.5-0.5q-1.5-0.5-3-2l-1.5-1.5-0.2-0.3-0.3-0.2-0.3-0.2-0.2-0.3-0.2-0.3-0.3-0.2-0.3 87.5-0.2 87.5 23.5 0.2q23.5 0.3 26.5 1.3t3.2 31.7q0.3 30.8-0.4 31.6-0.8 0.7-59.3 1.2t-60.5-0.5-2.8-12.7l-0.7-11.8-0.3 0.2-0.2 0.3-1 0.5-1 0.5-0.2 0.3-0.3 0.2-0.3 0.2-0.2 0.3-0.2 0.3q-0.3 0.2-3 3l-2.8 2.7-0.2 0.3-0.3 0.2-0.3 0.2-0.2 0.3h-4l-1.5-0.3-1.5-0.2 0.2-1.5 0.3-1.5 0.3-0.2 0.2-0.3 0.2-0.3 0.3-0.2 2.3-2.2q2.2-2.3 2.4-2.6l0.3-0.2 0.3-0.2 0.2-0.3 0.2-0.3 0.3-0.2 0.3-1 0.2-1-119.5-0.2q-119.5-0.3-119.7-0.6l-0.3-0.2-0.5 5.5q-0.5 5.5-1.2 14.3-0.8 8.7-30.8 9.7l-30 1-0.2 0.3-0.3 0.2v111l0.3 0.2 0.2 0.3h1l1-1q1-1 3.5-1h2.5l1 0.5 1 0.5 0.2 0.3 0.3 0.2v2l-0.3 0.2-0.2 0.3-1 0.5-1 0.5-3 3q-3 3-3.2 3.3l-0.3 0.2-0.3 0.2-0.2 0.3-0.2 0.3-0.3 0.2-0.3 2-0.2 2 28 0.2q28 0.3 30.5 1 2.5 0.8 2 32-0.5 31.3-60.5 31.3t-60-31.5 24.5-32.5l24.5-1-0.2-0.3-0.3-0.2-0.3-0.2-0.2-0.3-1-0.5-1-0.5-1-0.5q-1-0.5-3.2-6.2l-2.3-5.8-0.5-1-0.5-1-0.3-0.2-0.2-0.3 0.2-0.3 0.3-0.2 0.3-0.2 0.2-0.3 0.2-0.3 0.3-0.2 0.3-0.2 0.2-0.3h3l2.5 0.7q2.5 0.8 2.7 2.3l0.3 1.5 0.5 1 0.5 1v-56q0-56-0.3-57l-0.2-1-23-0.2q-23-0.3-25-1.3t-2.5-11.7l-0.5-10.8-1.5-0.2-1.5-0.3h-3l-0.2 0.3-0.3 0.2-3.5 3.5q-3.5 3.5-3.8 3.7l-0.2 0.3-0.2 0.3-0.3 0.2-0.3 0.2-0.2 0.3h-4l-1.5-0.3-1.5-0.2 0.2-1.5 0.3-1.5 0.3-0.2 0.2-0.3 0.2-0.3 0.3-0.2 0.3-0.2q0.2-0.3 2.7-2.8l2.5-2.5 0.2-0.3 0.3-0.2 0.3-0.2 0.2-0.3 0.2-0.3 0.3-0.2 0.3-1 0.2-1-72-0.2q-72-0.3-74-1.3t-2-44.3v-43.2h0.5l0.5-1q0.5-1 0.8-3l0.2-2h2l0.2 2.5 0.3 2.5 0.3-2.5 0.2-2.5h2l0.2 1.5 0.3 1.5 0.5 3 0.5 3h0.5v81l68-0.2 68-0.3-0.2-0.3-0.3-0.2-0.3-0.2-0.2-0.3-0.2-0.3-0.3-0.2-0.3-0.2-0.2-0.3-0.2-0.3q-0.3-0.2-2-1.4l-1.8-1.3-0.2-0.3-0.3-0.2v-2l0.3-0.2 0.2-0.3 0.2-0.3 0.3-0.2 0.3-0.2 0.2-0.3 0.2-0.3 0.3-0.2 0.3 0.2 0.2 0.3 1 0.5 1 0.5 2 0.5 2 0.5 4 3q4 3 4.2 3.3l0.3 0.2 0.3 0.2 0.2 0.3 1 0.5 1 0.5 1.5 0.3 1.5 0.2 0.8-16q0.7-16 1.4-16.8 0.8-0.7 59.3-0.2t60 0.8q1.5 0.2 1.7 14.2 0.3 14 0.6 15.5l0.2 1.5 121.5-0.2 121.5-0.3-0.2-0.3-0.3-0.2-0.3-1-0.2-1-1-0.2q-1-0.3-3.5-1.3l-2.5-1-1-0.5-1-0.5 0.2-0.3 0.3-0.2 0.3-0.2 0.2-0.3 0.2-0.3 0.3-0.2 0.3-0.2 0.2-0.3h4l3.5 1q3.5 1 4.5 1.5l1 0.5 1 0.3 1 0.2 0.8-13q0.7-13 1.4-13.8 0.8-0.7 29.8-1l29-0.2v-174l-1 0.2q-1 0.3-4.5 0.3h-3.5l-0.2-0.3-0.3-0.2v-2l0.3-0.2 0.2-0.3 0.2-0.3 0.3-0.2 1.7-1.8q1.8-1.7 2.8-2.2l1-0.5 0.2-0.3 0.3-0.2 0.3-0.2 0.2-0.3-26-0.5q-26-0.5-29.5-1.8-3.5-1.2-3.5-15.2v-14h-46l1.2 3.5q1.3 3.5 1.3 4.5v1l-0.3 0.2-0.2 0.3-0.2 0.3-0.3 0.2-0.3 0.2-0.2 0.3h-2l-1.5-0.5-1.5-0.5-1-0.5q-1-0.5-2.8-3.8l-1.7-3.2-0.3-0.2-0.2-0.3-0.2-0.3-0.3-0.2-0.3-0.2-0.2-0.3-1.5-0.3-1.5-0.2-0.2 14q-0.3 14-2.6 15.2-2.2 1.3-53.7 1.3t-58.5-1-7.5-15.3l-0.5-14.2-30 0.2-30 0.3 0.2 0.3 0.3 0.2 0.3 0.2 0.2 0.3 0.2 0.3 0.3 0.2 1.5 2.5q1.5 2.5 1.8 2.7l0.2 0.3 0.2 0.3 0.3 0.2v1l-0.3 0.2-0.2 0.3-0.2 0.3-0.3 0.2-0.3 0.2-0.2 0.3h-3l-1.5-0.5q-1.5-0.5-3.7-2.8l-2.3-2.2-0.3-0.2-0.2-0.3-0.2-0.3-0.3-0.2-0.5-1-0.5-1-0.5 1-0.5 1-0.5 12q-0.5 12-0.8 12.2-0.2 0.3-27.7 1.3l-27.5 1-0.2 0.3-0.3 0.2v51l0.3-0.2 0.2-0.3 0.2-0.3 0.3-0.2 0.3-0.2 0.2-0.3 1.5-1.5q1.5-1.5 4.5-1.5h3l1.5 0.5 1.5 0.5-0.2 0.3-0.3 0.2-0.3 0.2-0.2 0.3-0.2 0.3-0.3 0.2-0.5 1-0.5 1-0.3 0.2-0.2 0.3-0.2 0.3q-0.3 0.2-2.6 2.4l-2.2 2.3-1 0.5-1 0.5-0.2 0.3-0.3 0.2-0.3 0.2-0.2 0.3-0.2 0.3-0.3 0.2-0.3 0.2-0.2 0.3 26 1q26 1 27.5 1.3l1.5 0.2v9l-0.5-0.2q-0.5-0.3-1.3-2.6l-0.7-2.2-0.5 4.5-0.5 4.5-0.5 2-0.5 2v-2.5q0-2.5 0-3.5v-1l-0.3-0.2-0.2-0.3 0.2-0.3 0.3-0.2v-1l-0.5-1-0.5-1-0.5 1.5-0.5 1.5-0.3 0.2-0.2 0.3-0.2 0.3-0.3 0.2-0.5 3.5-0.5 3.5h-0.5v-13h-105v8h-0.5l-0.5-2q-0.5-2-1-3l-0.5-1-0.5 1-0.5 1-0.5 3-0.5 3-0.5-5-0.5-5-0.5 1-0.5 1-0.3-0.2-0.2-0.3-0.2-0.3-0.3-0.2-0.5 1.5-0.5 1.5h-0.5l0.2-3.5 0.3-3.5 0.3-0.2 0.2-0.3 0.2-0.3 0.3-0.2 0.3-0.2 0.2-0.3 0.2-0.3 0.3-0.2 0.3-0.2 0.2-0.3 26.5-0.5 26.5-0.5-0.2-0.3-0.3-0.2-0.3-0.2-0.2-0.3-0.2-0.3-0.3-0.2-0.3-0.2-0.2-0.3-0.2-0.3-0.3-0.2-0.3-0.2-0.2-0.3-0.2-0.3q-0.3-0.2-1.6-2.2-1.2-2-2.2-2.2l-1-0.3-1-0.3-1-0.2 0.2-1 0.3-1 0.3-0.2 0.2-0.3 0.2-0.3 0.3-0.2 0.3-0.2 0.2-0.3 3 0.5q3 0.5 4.5 0.8l1.5 0.2-0.2-24.5-0.3-24.5-0.3-0.2-0.2-0.3-26-0.5q-26-0.5-27.5-1t-1.5-32 24-32.2l24-0.8-0.2-1-0.3-1-0.3-0.2-0.2-0.3-0.2-0.3-0.3-0.2-0.3-0.2q-0.2-0.3-2.2-2.3l-2-2-0.2-0.3-0.3-0.2v-2l0.3-0.2 0.2-0.3 0.2-0.3 0.3-0.2 0.3-0.2 0.2-0.3 4.5 0.7q4.5 0.8 4.5 1.8v1h2v-46l-25-0.8q-25-0.7-26.2-1.4-1.3-0.8-0.8-31.8t0.8-32q0.2-1 59.2-0.2 59 0.7 60.5 1 1.5 0.2 0.7 32.2-0.7 32-1 32.2-0.2 0.3-29.7 0.6zm-82.5-33.3v-27.5h105v55h-105v-27.5zm-1.2 93.3l0.2-0.3 52-0.3 52-0.2v56h-105l0.2-27.5q0.3-27.5 0.6-27.7zm192.2 27.2v-28l52.2 0.5q52.3 0.5 52.6 28l0.2 27.5h-105v-28zm184 0v-28l52 0.2 52 0.3 0.2 0.3q0.3 0.2 0.3 27.2t-52.3 27.5l-52.2 0.5v-28zm-375 250.5v-27.5h105v55h-105v-27.5zm375 0v-27.5h105v55h-105v-27.5zm-374.2 166.3l0.2-0.3 52.2 0.3q52.3 0.2 52.6 27.7l0.2 27.5h-106l0.2-27.5q0.3-27.5 0.6-27.7z" fill="#020101" stroke="#020101"/>
  <g fill="#fefefe" stroke="#fefefe">
   <path d="m516 403v-4h105v13l-0.2 21-0.3 21-0.3 0.2q-0.2 0.3-51.7 0.3h-51.5l-0.2-0.3q-0.3-0.2-0.6-23.7l-0.2-23.5v-4z"/>
   <path d="m518 549.5v-27.5h105v55h-105v-27.5z"/>
   <path d="m893 549.5v-27.5h105v55h-105v-27.5z"/>
   <path d="m92.8 271.8l0.2-0.3 52-0.3 52-0.2v56h-105l0.2-27.5q0.3-27.5 0.6-27.7z"/>
   <path d="m303.2 426.5l-0.2-27.5h105l-0.2 27.5q-0.3 27.5-52.3 27.5h-52l-0.3-27.5z"/>
   <path d="m92 648.5v-27.5h105v55h-105v-27.5z"/>
   <path d="m518.8 715.8l0.2-0.3 52.2 0.3q52.3 0.2 52.6 27.7l0.2 27.5h-106l0.2-27.5q0.3-27.5 0.6-27.7z"/>
  </g>
  <path d="m150 211v1h-4q-4 0-4.2 15.5l-0.3 15.5h-0.5l0.2-16 0.3-16 0.3-0.2 0.2-0.3-28-1q-28-1-29.2-1.7-1.3-0.8-0.8-32.3t59.8-31.3q59.2 0.3 60.7 0.6 1.5 0.2 1.3 31.7-0.3 31.5-1 32.3-0.8 0.7-27.8 1-27 0.2-27 1.2zm-58-34.5v-27.5h105v55h-105v-27.5z" fill="#010101" stroke="#010101"/>
  <path d="m940 753.2v-0.2l38.5 8.8q38.5 8.7 59 11.2t33.5 5.5 13.5 3.3l0.5 0.2v83l-0.5-0.2-0.5-0.3-0.2-0.3-0.3-0.2-0.3-0.2-0.2-0.3-0.2-0.3-0.3-0.2-0.5 1-0.5 1-0.3-0.2-0.2-0.3-2-0.5q-2-0.5-11-4.2-9-3.8-9-4.8t-1-1.2q-1-0.3-4.5-3.8t-7-4.8q-3.5-1.2-3.5-2.2t-8-3.2q-8-2.3-12-3.3t-7-1.5-10.8-5.2q-7.7-4.8-16.4-8.8-8.8-4-9-5.5-0.3-1.5-3.8-5.5t-4.8-4.2q-1.2-0.3-4.2-0.8t-13.5-6-21.3-5.8q-10.7-0.2-16-3-5.2-2.7-10.7-5.4-5.5-2.8-6.3-4.3-0.7-1.5 0.3-5t0.3-4q-0.8-0.5-0.8-1.5v-1h0.2q0.3 0 0.6-0.5l0.2-0.5 5-3.8q5-3.7 6.5-4.4 1.5-0.8 2-1.6 0.5-0.7 3-0.7t5.5 0 6.5 0.5 5.7-0.2q2.3-0.8 2.6-1.8 0.2-1 2-1 1.7 0 1.4-0.8-0.2-0.7-0.2-1z" fill="#e4b59a" stroke="#e4b59a"/>
  <path d="m909 660.2v-0.2h0.2q0.3 0 0.6 0.2l0.2 0.3 0.2 0.3 0.3 0.2 0.5 1 0.5 1 0.5 2.5 0.5 2.5 0.3 5 0.2 5-2 0.2q-2 0.3-12 2.3l-10 2-0.2 0.3-0.3 0.2-0.3 0.2-0.2 0.3-0.2 0.3-0.3 0.2v2l0.7 3.8q0.8 3.7 1.8 4 1 0.2 4.5 11 3.5 10.7 12 21.2t16.5 16.5 12.5 8 4.5 2.3v0.4q0 0.3 0.2 1 0.3 0.8-4 2.6-4.2 1.7-7.7 1.2t-6.5-0.5-5.5 0-3 0.7q-0.5 0.8-2 1.6-1.5 0.7-6.5 4.4l-5 3.8-0.5 0.2q-0.5 0.3-0.5 0.6v0.2l-3 0.2q-3 0.3-5.8 5-2.7 4.8-2 8 0.8 3.3 2 4.6 1.3 1.2 1.3 1.7t0.5 3l0.5 2.5v1l-0.3 1-0.2 1h-5v-2l-1-0.2q-1-0.3-1.8-1.6-0.7-1.2-2-2.2-1.2-1-2.2-3.5t-5-1.7q-4 0.7-7.5 0.7t-6.5 1-10.5 1.5l-7.5 0.5 2.5-0.7q2.5-0.8 2.7-1.8l0.3-1 0.3-0.2 0.2-0.3-2.5-0.3-2.5-0.2-0.2-1q-0.3-1-0.6-0.8-0.2 0.3-6.2-0.2t-5-1-2.5-1.5l-3.5-1h-2l-0.2 0.3-0.3 0.2-0.3 0.2-0.2 0.3 0.2 0.3 0.3 0.2 0.5 1 0.5 1 1 1q1 1 1.3 1.2l0.2 0.3 0.2 0.3 0.3 0.2 0.3 1.5 0.2 1.5-1-0.2-1-0.3-0.2-0.3-0.3-0.2-0.3-0.2-0.2-0.3-1-0.3-1-0.2-0.2-0.5-0.3-0.5h-0.5l-0.2-0.5-0.3-0.5-0.5-1.5q-0.5-1.5-1.2-3-0.8-1.5-6.8-5.7-6-4.3-16.8-15.6l-10.7-11.2-0.3-0.2-0.2-0.3-1-0.5-1-0.5v-0.5l-0.2-0.5-0.3-0.5-0.3-0.2-0.2-0.3-1-0.3-1-0.2v-2l1 0.2 1 0.3 1.5 0.5 1.5 0.5 0.2 0.3 0.3 0.2 0.3 0.2 0.2 0.3 4 1q4 1 8.5 2t8 1h3.5l1-0.5 1-0.5 0.2-0.3 0.3-0.2 0.3-0.2 0.2-0.3 0.2-0.3 0.3-0.2 0.3-0.2 0.2-0.3 0.2-0.3 0.3-0.2v-1l-0.3-0.2-0.2-0.3-1.5-0.5-1.5-0.5-1.5-0.5-1.5-0.5-3.5-0.3q-3.5-0.2-3.5-1.2t-1-1.2q-1-0.3-1.8-2-0.7-1.8-2.4-2.6-1.8-0.7-2.3-2-0.5-1.2-2.5-2-2-0.7-4-0.4-2 0.2-2-1.3t-3-1.7l-3-0.3-0.2-0.3-0.3-0.2-0.3-0.2-0.2-0.3-0.2-0.3-0.3-0.2-0.3-0.2-0.2-0.3-0.2-0.3-0.3-0.2v-2l0.5-1 0.5-1 0.3-0.2 0.2-0.3 0.2-0.3 0.3-0.2 0.3-0.2 0.2-0.3 0.2-0.3 0.3-0.2 0.3-0.2 0.2-0.3 2.8-0.7q2.7-0.8 3-1.8 0.2-1 4.2-1.8 4-0.7 3-1.2t3-1.8q4-1.2 4.8-3.2 0.7-2 0.4-3.5-0.2-1.5 1.6-2 1.7-0.5 3-1.7 1.2-1.3 3.7-3.3t22.5-6 22.5-4.5l2.5-0.5 1-0.5 1-0.5 2-0.3 2-0.2-0.2-1-0.3-1-0.3 0.2-0.2 0.3-0.2 0.3-0.3 0.2-0.3-0.2-0.2-0.3-0.2-0.3-0.3-0.2-0.3 0.2-0.2 0.3h-2l-6-0.5-6-0.5 0.2-0.3 0.3-0.2 0.3-0.2 0.2-0.3 1-0.5 1-0.5 27.2-4.7q27.3-4.8 27.6-6.8l0.2-2 0.2-1.5 0.3-1.5 0.3-0.2 0.2-0.3 0.2-0.3 0.3-0.2 0.3-0.2 0.2-0.3 1.5-0.5 1.5-0.5v-0.3z" fill="#d09f85" stroke="#d09f85"/>
  <path d="m901.5 664.2l1.5-0.2 0.2 1 0.3 1h0.5l-0.2 2q-0.3 2-27.6 6.8l-27.2 4.7-1 0.5-1 0.5-0.2 0.3-0.3 0.2-0.3 0.2-0.2 0.3 6 0.5 6 0.5h2l0.2-0.3 0.3-0.2 0.3 0.2 0.2 0.3 0.2 0.3 0.3 0.2 0.3-0.2 0.2-0.3 0.2-0.3 0.3-0.2 0.3 1 0.2 1-2 0.2-2 0.3-1 0.5-1 0.5-2.5 0.5q-2.5 0.5-22.5 4.5t-22.5 6-3.7 3.3q-1.3 1.2-3 1.7-1.8 0.5-1.6 2 0.3 1.5-0.4 3.5-0.8 2-4.8 3.2-4 1.3-3 1.8t-2 1.2q-3 0.8-3 1.8t-1.5 1.2q-1.5 0.3-4 0.8l-2.5 0.5-0.2 0.3-0.3 0.2-0.3 0.2-0.2 0.3-0.2 0.3-0.3 0.2-0.3 0.2-0.2 0.3-0.2 0.3-0.3 0.2-0.5 1-0.5 1v2l0.3 0.2 0.2 0.3 0.2 0.3 0.3 0.2 0.3 0.2 0.2 0.3 0.2 0.3 0.3 0.2 0.3 0.2 0.2 0.3 3 0.3q3 0.2 3 1.7t2 1.3q2-0.3 4 0.4 2 0.8 2.5 2 0.5 1.3 2.3 2 1.7 0.8 2.4 2.6 0.8 1.7 1.8 2 1 0.2 1 1.2t3.5 1.2l3.5 0.3 1.5 0.5 1.5 0.5 1.5 0.5 1.5 0.5 0.2 0.3 0.3 0.2v1l-0.3 0.2-0.2 0.3-0.2 0.3-0.3 0.2-0.3 0.2-0.2 0.3-0.2 0.3-0.3 0.2-0.3 0.2-0.2 0.3-1 0.5-1 0.5h-3.5q-3.5 0-8-1t-8.5-2l-4-1-0.2-0.3-0.3-0.2-0.3-0.2-0.2-0.3-1.5-0.3q-1.5-0.2-1.3 0.8l0.3 1 0.3 0.5 0.2 0.5-1-0.2q-1-0.3-6.5-3.3t-11-4l-5.5-1-0.2 0.3-0.3 0.2-2 7.5q-2 7.5-4.3 9.7-2.2 2.3-4.2 2.8l-2 0.5-0.2 0.3-0.3 0.2-0.3 0.2-0.2 0.3-0.2 0.3-0.3 0.2-0.3 0.2-0.2 0.3-0.2 0.3-0.3 0.2-0.3 0.2-0.2 0.3h-3l-0.2-0.3-0.3-0.2-0.3-0.2-0.2-0.3 0.2-0.3 0.3-0.2 0.3-0.2 0.2-0.3 0.2-0.3 0.3-0.2 0.5-1q0.5-1 1-2t1.2-6l0.8-5-1.5-0.2-1.5-0.3h-2l-1 0.3-1 0.2-0.2 1.5q-0.3 1.5-0.8 2.5l-0.5 1-0.5 1-0.5 1-0.5 1-0.5 1-0.3 0.2-0.2 0.3-1 0.3-1 0.2 0.2-1 0.3-1 0.3-0.2 0.2-0.3 0.2-0.3 0.3-0.2v-4q0-4-1-10l-1-6-0.3-0.2-0.2-0.3-0.2-0.3-0.3-0.2-0.5-1-0.5-1-0.3-0.2-0.2-0.3-3-0.3-3-0.2v-0.5l1.5-0.5 1.5-0.5 1-0.5 1-0.5 3-0.5q3-0.5 8.5-1.5t6.7-2.7q1.3-1.8 3-1.8 1.8 0 3.3-1.8 1.5-1.7 2.5-4 1-2.2 2-2.4 1-0.3 1.8-3 0.7-2.8-0.3-5.8t-6.3-9.2q-5.2-6.3-10.7-8.3l-5.5-2-2-0.3-2-0.2v-2l1-0.2 1-0.3v-0.5h0.5l0.3-0.2 0.2-0.3h4l0.2 0.3 0.3 0.2 4.3-0.2q4.2-0.3 10.2-1.8t21.5-2 46.5-3.5 47-4 24-2 9.5-1.3z" fill="#5f5959" stroke="#5f5959"/>
  <path d="m904 660.2l5-0.2v0.5l-1.5 0.5-1.5 0.5-0.2 0.3-0.3 0.2-0.3 0.2-0.2 0.3-0.2 0.3-0.3 0.2-0.3 1.5-0.2 1.5h-0.5l-0.3-1-0.2-1-1.5 0.2q-1.5 0.3-9.5 1.3t-24 2-47 4-46.5 3.5-21.5 2-10.2 1.8l-4.3 0.2-0.3-0.2-0.2-0.3h-4l-0.2 0.3-0.3 0.2h-0.5v-0.2q0-0.3-2.5-0.8t-12.5 0.5-17 4l-7 3-0.2 0.3-0.3 0.2-0.3 0.2-0.2 0.3-0.2 0.3-0.3 0.2-0.5 1-0.5 1h-0.5l-0.2-1-0.3-1-0.3-0.2-0.2-0.3-0.2-0.3-0.3-0.2-0.3-0.2-0.2-0.3-0.2-0.3-0.3-0.2v-6l0.3-1 0.2-1 9.8-6.5q9.7-6.5 16-10.3 6.2-3.7 15.2-7.7t14.5-9 51-10 55.5-4.5 15.8 6.2q5.7 5.8 6.2 13.8t1.8 10.8q1.2 2.7 12.7 1.7t16.5-1.3z" fill="#edbfac" stroke="#edbfac"/>
  <path d="m896.5 768.8l3.5-0.8-0.5 1.2q-0.5 1.3 0.3 2 0.7 0.8-0.3 4.3t-0.3 5q0.8 1.5 6.3 4.3 5.5 2.7 10.7 5.4 5.3 2.8 16 3 10.8 0.3 21.3 5.8t13.5 6 4.2 0.8q1.3 0.2 4.8 4.2t3.8 5.5q0.2 1.5 9 5.5 8.7 4 16.4 8.8 7.8 4.7 10.8 5.2t7 1.5 12 3.3q8 2.2 8 3.2t3.5 2.2q3.5 1.3 7 4.8t4.5 3.8q1 0.2 1 1.2t9 4.8q9 3.7 11 4.2l2 0.5 0.2 0.3 0.3 0.2 0.5-1 0.5-1 0.3 0.2 0.2 0.3 0.2 0.3 0.3 0.2 0.3 0.2 0.2 0.3 0.5 0.3 0.5 0.2v41l-1.5-0.2-1.5-0.3-1-0.5-1-0.5-1.5-0.5q-1.5-0.5-11-5.5t-62.5-30.5-77.5-35-50.5-15.5-34-10-13-10.5l-5-6.5-0.2-0.3-0.3-0.2-0.3-1-0.2-1h-2v-2l1.2 0.5q1.3 0.5 1.6 0.7l0.2 0.3 0.2 0.3 0.3 0.2 0.3 0.2 0.2 0.3 1 0.3 1 0.2-0.2-1.5-0.3-1.5-0.3-0.2-0.2-0.3-0.2-0.3q-0.3-0.2-1.3-1.2l-1-1-0.5-1-0.5-1-0.3-0.2-0.2-0.3 0.2-0.3 0.3-0.2 0.3-0.2 0.2-0.3h2l3.5 1q3.5 1 2.5 1.5t5 1 6.2 0.2q0.3-0.2 0.6 0.8l0.2 1 2.5 0.2 2.5 0.3-0.2 0.3-0.3 0.2-0.3 1q-0.2 1-2.7 1.8l-2.5 0.7 7.5-0.5q7.5-0.5 10.5-1.5t6.5-1 7.5-0.7q4-0.8 5 1.7t2.2 3.5q1.3 1 2 2.2 0.8 1.3 1.8 1.6l1 0.2v2h5l0.2-1 0.3-1v-1l-0.5-2.5q-0.5-2.5-0.5-3t-1.3-1.7q-1.2-1.3-2-4.6-0.7-3.2 2-8 2.8-4.7 6.3-5.4z" fill="#cfa18c" stroke="#cfa18c"/>
  <path d="m733 678.8v0.7l-1 0.3-1 0.2v2l2 0.2 2 0.3 5.5 2q5.5 2 10.7 8.3 5.3 6.2 6.3 9.2t0.3 5.8q-0.8 2.7-1.8 3-1 0.2-2 2.4-1 2.3-2.5 4-1.5 1.8-3.3 1.8-1.7 0-3 1.8-1.2 1.7-6.7 2.7t-8.5 1.5l-3 0.5-1 0.5-1 0.5-1.5 0.5-1.5 0.5v0.5l-1 0.2q-1 0.3-3.5 3-2.5 2.8-5 2.8h-2.5v-3l-3.5-0.2-3.5-0.3-0.2-0.3q-0.3-0.2-0.6-0.4l-0.2-0.3 0.2-0.3 0.3-0.2 0.5-1q0.5-1 1-2t1.2-5.5l0.8-4.5-1 0.2q-1 0.3-4 0-3-0.2-2.8-1.7 0.3-1.5-10-0.7-10.2 0.7-23.7-1.3l-13.5-2-2.5-0.3-2.5-0.2v-2l4-0.2q4-0.3 5-0.8l1-0.5-1.5-1.7q-1.5-1.8-0.5-2 1-0.3 0.2-1-0.7-0.8 6.6-4.3 7.2-3.5 7.2-4.5t10-2.2q10-1.3 11.5-1.6l1.5-0.2h0.5l0.5-1 0.5-1 0.3-0.2 0.2-0.3 0.2-0.3 0.3-0.2 0.3-0.2 0.2-0.3 7-3q7-3 17-4t12.5-0.5 2.5 0.8z" fill="#eebeae" stroke="#eebeae"/>
 </g>
</svg>
