<?xml version="1.0" encoding="UTF-8"?>
<svg viewBox="0 0 744.09448819 1052.3622047" xmlns="http://www.w3.org/2000/svg" xmlns:xlink="http://www.w3.org/1999/xlink">
 <defs>
  <filter id="d">
   <feGaussianBlur stdDeviation="10.8317"/>
  </filter>
  <filter id="f" x="-.04894" y="-.21632" width="1.0979" height="1.4326">
   <feGaussianBlur stdDeviation="4.5525"/>
  </filter>
  <filter id="e" x="-.0589" y="-.26033" width="1.1178" height="1.5207">
   <feGaussianBlur stdDeviation="5.4786"/>
  </filter>
  <linearGradient id="b">
   <stop stop-color="#fff" offset="0"/>
   <stop stop-color="#fff" stop-opacity="0" offset="1"/>
  </linearGradient>
  <linearGradient id="a" x1="346.48" x2="349.51" y1="260.4" y2="327.07" gradientUnits="userSpaceOnUse" xlink:href="#b"/>
  <radialGradient id="c" cx="421.65" cy="68.847" r="201.02" gradientTransform="matrix(-.94576 1.4918 -.96548 -.59984 895.96 -286.91)" gradientUnits="userSpaceOnUse" xlink:href="#b"/>
 </defs>
 <path d="m350.28 235.44c-61.038 0.56718-120.89 30.433-158.28 78.75-31.383-1.252-66.031-2.222-92.531 17.25-31.341 22.176-45.87 63.48-40.406 100.91-0.4186 32.508-4.026 68.192 14.219 96.688 21.369 34.111 63.902 50.823 103.06 45.156 10.632-0.89984 24.198-1.3632 30.75 8.7812 60.326 63.145 163.9 80.397 240.79 38.002 22.437-11.739 42.891-27.853 59.397-46.971 32.184 0.8311 67.735 3.4262 95.139-16.094 32.416-21.818 47.707-63.647 42.048-101.66 0.36851-31.876 4.1401-66.587-13.079-95.106-20.989-35.816-65.802-53.451-106.01-46.675-8.7251 0.43619-16.761-4.681-20.963-12.143-38.603-42.79-96.399-68.02-154.13-66.888z" fill-rule="evenodd" filter="url(#d)" opacity=".385"/>
 <path d="m353.22 239.5c-64.832 0-122.47 30.804-159.09 78.562h-38.75c-51.259 0-92.531 41.272-92.531 92.531v67.094c0 51.259 41.272 92.531 92.531 92.531h45.688c36.746 42.847 91.284 70 152.16 70s115.38-27.16 152.12-70h42.844c51.259 0 92.531-41.272 92.531-92.531v-67.094c0-51.259-41.272-92.531-92.531-92.531h-35.875c-36.62-47.758-94.262-78.562-159.09-78.562z" fill-rule="evenodd"/>
 <path d="m444.69 334.69c-20.031 0.23098-77.8 20.4-80.753 78.638v65.205c0 37.224-27.487 67.789-63.344 72.625 3.4521 0.44029 6.9869 0.65625 10.562 0.65625h229.12c45.356 0 81.875-36.487 81.875-81.844v-53.406c0-45.356-36.519-81.875-81.875-81.875z" fill="#fff" fill-rule="evenodd"/>
 <g transform="scale(1.0038,.9962)" fill="#fff" font-family="Sans" font-size="169.84" letter-spacing="0" word-spacing="0">
  <path d="m208.85 482.88-17.649-70.688-17.747 70.269c-1.5066 5.3733-2.742 9.3332-3.706 11.88s-2.6979 4.8731-5.2013 6.9792-5.8337 3.1592-9.9906 3.1592c-3.3518 0-6.1335-0.6384-8.3449-1.9152s-3.9617-3.0132-5.2506-5.2091-2.3256-4.7296-3.1099-7.6012-1.479-5.5063-2.0836-7.9044l-19.841-80.251c-1.2129-4.7477-1.8193-8.4364-1.8193-11.066 0-3.5141 1.2586-6.4987 3.776-8.954 2.5173-2.455 5.635-3.6825 9.3531-3.6827 5.1348 1.3e-4 8.5626 1.5948 10.283 4.7841s3.1324 7.3896 4.2347 12.6l14.088 68.724 15.565-63.888c1.3199-5.0552 2.5216-8.953 3.6049-11.693s2.9388-5.1796 5.5668-7.3187 6.1774-3.2083 10.649-3.2084c4.5473 1.3e-4 8.0831 1.1102 10.607 3.3302s4.2518 4.5821 5.1832 7.0854 2.1293 6.4385 3.5945 11.805l15.715 63.888 14.005-68.294c0.74971-3.5832 1.4944-6.497 2.234-8.7415s2.0766-4.3175 4.0118-6.2198c1.9349-1.9021 4.7338-2.8532 8.3968-2.8534 3.6523 1.3e-4 6.7527 1.2121 9.3012 3.636s3.8224 5.4243 3.8226 9.0006c-1.5e-4 2.3429-0.61523 6.0316-1.8452 11.066l-19.841 80.251c-1.3443 5.394-2.4941 9.4377-3.4494 12.131s-2.6487 5.1167-5.0795 7.2694-5.8407 3.2291-10.229 3.2291c-4.1743 0-7.5132-1.0384-10.017-3.1151s-4.2261-4.3668-5.1676-6.8703-2.1485-6.3744-3.6205-11.613z"/>
  <path d="m308.13 425.17v64.152c-4e-5 4.8342-1.2233 8.5687-3.6697 11.203s-5.572 3.9522-9.3764 3.9522c-3.8632 0-6.9628-1.3381-9.2986-4.0144s-3.5038-6.39-3.5038-11.141v-63.504c-1e-5 -4.803 1.1757-8.4891 3.5272-11.058s5.4432-3.8536 9.2753-3.8537c3.7975 9e-5 6.9213 1.2872 9.3712 3.8615s3.6748 6.042 3.6749 10.403zm-12.802-21.272c-3.5868 1e-4 -6.6578-1.1039-9.2131-3.3121s-3.833-5.2885-3.833-9.2416c-1e-5 -3.5936 1.3062-6.5713 3.9185-8.9332s5.6548-3.5426 9.1276-3.5427c3.3207 1.3e-4 6.2846 1.0808 8.8918 3.2421s3.9107 5.2395 3.9107 9.2339c-4e-5 3.8737-1.2665 6.9344-3.7993 9.182s-5.534 3.3718-9.0032 3.3717z"/>
 </g>
 <g transform="scale(1.1101,.9008)" font-family="Sans" font-size="187.83" letter-spacing="0" word-spacing="0">
  <path d="m452.56 443.63h-50.586v30.048h41.953c4.6276 8e-5 8.1443 1.0959 10.55 3.2874s3.6083 5.0644 3.6084 8.6182c-1.1e-4 3.5654-1.222 6.4267-3.6657 8.5838s-5.9414 3.2358-10.493 3.2358h-41.953v41.598c-4e-5 5.9499-1.4273 10.455-4.2819 13.516s-6.5365 4.5914-11.046 4.5914c-4.6125 0-8.3345-1.5352-11.166-4.6058s-4.2475-7.5711-4.2475-13.502v-101.44c-2e-5 -4.085 0.64485-7.5013 1.9346-10.249s3.3303-4.7594 6.1219-6.0359 6.2336-1.9144 10.326-1.9145h62.944c4.8072 1.4e-4 8.4442 1.1255 10.911 3.3762s3.7 5.1533 3.7001 8.7071c-1.1e-4 3.6343-1.2287 6.5729-3.6857 8.816s-6.0991 3.3649-10.925 3.3648z"/>
  <path d="m512.38 469.4v70.946c-4e-5 5.3462-1.3528 9.4761-4.0583 12.39s-6.162 4.3707-10.369 4.3707c-4.2724 0-7.7002-1.4798-10.283-4.4395s-3.8749-7.0667-3.8749-12.321v-70.23c-1e-5 -5.3117 1.3002-9.3881 3.9007-12.229s6.0196-4.2617 10.258-4.2618c4.1997 1e-4 7.6542 1.4236 10.364 4.2704s4.064 6.6818 4.0641 11.504zm-14.158-23.525c-3.9666 1.1e-4 -7.3629-1.2208-10.189-3.6628s-4.2389-5.8485-4.2389-10.22c-1e-5 -3.9741 1.4445-7.2672 4.3335-9.8793s6.2537-3.9178 10.094-3.9179c3.6723 1.4e-4 6.9502 1.1953 9.8334 3.5854s4.3248 5.7943 4.3249 10.212c-4e-5 4.2839-1.4006 7.6687-4.2016 10.154s-6.12 3.7288-9.9567 3.7287z"/>
 </g>
 <path transform="matrix(.98995 0 0 1 -34.437 4.0406)" d="m593.97 436.17c0 110.46-90 200.01-201.02 200.01s-201.02-89.548-201.02-200.01 90-200.01 201.02-200.01 201.02 89.548 201.02 200.01z" fill="url(#c)" fill-rule="evenodd" opacity=".2168"/>
 <path transform="matrix(.90288 0 0 1 40.424 -4.6323)" d="m457.6 306.87c0 13.947-49.975 25.254-111.62 25.254s-111.62-11.307-111.62-25.254 49.975-25.254 111.62-25.254 111.62 11.307 111.62 25.254z" fill="url(#a)" fill-rule="evenodd" filter="url(#e)" opacity=".2301"/>
 <path transform="matrix(-.7624 0 0 -1.1027 620.89 933.22)" d="m457.6 306.87c0 13.947-49.975 25.254-111.62 25.254s-111.62-11.307-111.62-25.254 49.975-25.254 111.62-25.254 111.62 11.307 111.62 25.254z" fill="url(#a)" fill-rule="evenodd" filter="url(#f)" opacity=".3756"/>
</svg>
